# Blender 4.1.0
# www.blender.org
mtllib guarda sol.mtl
o umbrella
v -0.024960 -0.099448 0.000000
v 0.000000 -0.099448 0.028821
v 0.000000 2.506147 0.035328
v -0.024788 -0.099448 0.010855
v -0.022070 2.510029 0.024050
v -1.381880 1.935737 0.147066
v 0.000000 2.556617 0.093926
v -0.058761 2.556617 0.041185
v -0.031987 2.510894 0.000000
v -0.084111 1.935737 1.595396
v 0.000000 2.053005 1.652026
v -1.140214 2.083893 1.031803
v 0.000000 2.431274 0.872976
v -0.592836 2.438962 0.546899
v -0.059275 2.556617 0.000000
v -1.408629 1.834773 0.000000
v -0.733952 2.431274 0.000000
v -1.408629 2.053005 0.000000
v 0.000000 1.854075 1.652026
v -1.140214 1.879261 1.031803
v 0.000000 2.556617 0.000000
v -1.013170 1.973817 1.074221
v -1.161378 1.973817 0.928118
v -1.408629 1.847255 0.050449
v -1.147696 1.896654 0.995148
v -1.082460 1.908719 1.051086
v -0.021593 1.864897 1.631490
v -0.877050 2.321792 0.798675
v 0.000000 2.306448 1.277480
v -1.084263 2.306448 0.000000
v 0.024960 -0.099448 0.000000
v 0.024788 -0.099448 0.010855
v 0.022070 2.510029 0.024050
v 1.381880 1.935737 0.147066
v 0.058761 2.556617 0.041185
v 0.031987 2.510894 0.000000
v 0.084111 1.935737 1.595396
v 1.140214 2.083893 1.031803
v 0.592836 2.438962 0.546899
v 0.059275 2.556617 0.000000
v 1.408629 1.834773 0.000000
v 0.733952 2.431274 0.000000
v 1.408629 2.053005 0.000000
v 1.140214 1.879261 1.031803
v 1.013170 1.973817 1.074221
v 1.161378 1.973817 0.928118
v 1.408629 1.847255 0.050449
v 1.147696 1.896654 0.995148
v 1.082460 1.908719 1.051086
v 0.021593 1.864897 1.631490
v 0.877050 2.321792 0.798675
v 1.084263 2.306448 0.000000
v 0.000000 -0.099448 -0.028821
v 0.000000 2.506147 -0.035328
v -0.024788 -0.099448 -0.010855
v -0.022070 2.510029 -0.024050
v -1.381880 1.935737 -0.147066
v 0.000000 2.556617 -0.093926
v -0.058761 2.556617 -0.041185
v -0.084111 1.935737 -1.595396
v 0.000000 2.053005 -1.652026
v -1.140214 2.083893 -1.031803
v 0.000000 2.431274 -0.872976
v -0.592836 2.438962 -0.546899
v 0.000000 1.854075 -1.652026
v -1.140214 1.879261 -1.031803
v -1.013170 1.973817 -1.074221
v -1.161378 1.973817 -0.928118
v -1.408629 1.847255 -0.050449
v -1.147696 1.896654 -0.995148
v -1.082460 1.908719 -1.051086
v -0.021593 1.864897 -1.631490
v -0.877050 2.321792 -0.798675
v 0.000000 2.306448 -1.277480
v 0.024788 -0.099448 -0.010855
v 0.022070 2.510029 -0.024050
v 1.381880 1.935737 -0.147066
v 0.058761 2.556617 -0.041185
v 0.084111 1.935737 -1.595396
v 1.140214 2.083893 -1.031803
v 0.592836 2.438962 -0.546899
v 1.140214 1.879261 -1.031803
v 1.013170 1.973817 -1.074221
v 1.161378 1.973817 -0.928118
v 1.408629 1.847255 -0.050449
v 1.147696 1.896654 -0.995148
v 1.082460 1.908719 -1.051086
v 0.021593 1.864897 -1.631490
v 0.877050 2.321792 -0.798675
vn -1.0000 -0.0016 -0.0000
vn -0.0000 -0.0035 1.0000
vn -0.0000 0.3050 0.9523
vn -0.7986 -0.0024 0.6019
vn -0.8026 0.2517 0.5408
vn -0.9688 0.0361 0.2452
vn -0.0000 0.2697 0.9629
vn -0.8225 0.3492 0.4490
vn -0.9615 0.2749 -0.0000
vn -0.5016 -0.0977 0.8596
vn -0.0000 0.3674 0.9301
vn -0.6995 0.4190 0.5789
vn -0.0000 0.9747 0.2235
vn -0.1781 0.9750 0.1330
vn -0.8886 0.4586 -0.0000
vn -1.0000 -0.0000 -0.0000
vn -0.2402 0.9707 -0.0000
vn -0.9053 0.4247 -0.0000
vn -0.0000 -0.0000 1.0000
vn -0.7511 -0.0000 0.6601
vn -0.0000 1.0000 -0.0000
vn -0.4242 -0.0927 0.9008
vn -0.9718 0.0152 0.2352
vn -0.9957 0.0221 0.0903
vn -0.9798 -0.0000 0.2000
vn -0.3167 -0.0000 0.9485
vn -0.6355 -0.0113 0.7720
vn -0.3741 0.8831 0.2832
vn -0.0000 0.8867 0.4623
vn -0.4963 0.8682 -0.0000
vn 1.0000 -0.0016 -0.0000
vn 0.7986 -0.0024 0.6019
vn 0.8026 0.2517 0.5408
vn 0.9688 0.0361 0.2452
vn 0.8225 0.3492 0.4490
vn 0.9615 0.2749 -0.0000
vn 0.5016 -0.0977 0.8596
vn 0.6995 0.4190 0.5789
vn 0.1781 0.9750 0.1330
vn 0.8886 0.4586 -0.0000
vn 1.0000 -0.0000 -0.0000
vn 0.2402 0.9707 -0.0000
vn 0.9053 0.4247 -0.0000
vn 0.7511 -0.0000 0.6601
vn 0.4242 -0.0927 0.9008
vn 0.9718 0.0152 0.2352
vn 0.9957 0.0221 0.0903
vn 0.9798 -0.0000 0.2000
vn 0.3167 -0.0000 0.9485
vn 0.6355 -0.0113 0.7720
vn 0.3741 0.8831 0.2832
vn 0.4963 0.8682 -0.0000
vn -0.0000 -0.0035 -1.0000
vn -0.0000 0.3050 -0.9523
vn -0.7986 -0.0024 -0.6019
vn -0.8026 0.2517 -0.5408
vn -0.9688 0.0361 -0.2452
vn -0.0000 0.2697 -0.9629
vn -0.8225 0.3492 -0.4490
vn -0.5016 -0.0977 -0.8596
vn -0.0000 0.3674 -0.9301
vn -0.6995 0.4190 -0.5789
vn -0.0000 0.9747 -0.2235
vn -0.1781 0.9750 -0.1330
vn -0.0000 -0.0000 -1.0000
vn -0.7511 -0.0000 -0.6601
vn -0.4242 -0.0927 -0.9008
vn -0.9718 0.0152 -0.2352
vn -0.9957 0.0221 -0.0903
vn -0.9798 -0.0000 -0.2000
vn -0.3167 -0.0000 -0.9485
vn -0.6355 -0.0113 -0.7720
vn -0.3741 0.8831 -0.2832
vn -0.0000 0.8867 -0.4623
vn 0.7986 -0.0024 -0.6019
vn 0.8026 0.2517 -0.5408
vn 0.9688 0.0361 -0.2452
vn 0.8225 0.3492 -0.4490
vn 0.5016 -0.0977 -0.8596
vn 0.6995 0.4190 -0.5789
vn 0.1781 0.9750 -0.1330
vn 0.7511 -0.0000 -0.6601
vn 0.4242 -0.0927 -0.9008
vn 0.9718 0.0152 -0.2352
vn 0.9957 0.0221 -0.0903
vn 0.9798 -0.0000 -0.2000
vn 0.3167 -0.0000 -0.9485
vn 0.6355 -0.0113 -0.7720
vn 0.3741 0.8831 -0.2832
vt 0.930728 0.044393
vt 0.989142 0.010858
vt 0.197271 0.378136
vt 0.285502 0.353018
vt 0.064757 0.041759
vt 0.064757 0.732478
vt 0.038860 0.733507
vt 0.035671 0.041759
vt 0.182572 0.439536
vt 0.010858 0.989142
vt 0.029435 0.902054
vt 0.027224 0.733737
vt 0.035469 0.041759
vt 0.237380 0.366718
vt 0.042174 0.092088
vt 0.057502 0.085410
vt 0.057502 0.050709
vt 0.016693 0.081941
vt 0.989142 0.232653
vt 0.380037 0.516189
vt 0.016336 0.106330
vt 0.035287 0.106330
vt 0.973815 0.974901
vt 0.966927 0.989142
vt 0.479417 0.989142
vt 0.577422 0.665283
vt 0.989142 0.968222
vt 0.989142 0.472190
vt 0.057502 0.106330
vt 0.236129 0.989142
vt 0.974147 0.023019
vt 0.192074 0.399843
vt 0.010858 0.959267
s 1
usemtl Material.002
f 10/1/10 11/2/11 12/3/12 22/4/22
f 2/5/2 3/6/3 5/7/5 4/8/4
f 23/9/23 12/3/12 18/10/18 6/11/6
f 4/8/4 5/7/5 9/12/9 1/13/1
f 22/4/22 12/3/12 26/14/26
f 5/15/5 3/16/3 7/17/7 8/18/8
f 29/19/29 28/20/28 12/3/12 11/2/11
f 15/21/15 9/22/9 5/15/5 8/18/8
f 5/23/5 9/24/9 17/25/17 14/26/14
f 3/27/3 5/23/5 14/26/14 13/28/13
f 7/17/7 21/29/21 15/21/15 8/18/8
f 28/20/28 30/30/30 18/10/18 12/3/12
f 11/2/11 10/1/10 27/31/27
f 12/3/12 23/9/23 25/32/25
f 6/11/6 18/10/18 24/33/24
f 24/33/24 18/10/18 16/10/16
f 25/32/25 20/3/20 12/3/12
f 26/14/26 12/3/12 20/3/20
f 27/31/27 19/2/19 11/2/11
f 14/26/14 17/25/17 30/30/30 28/20/28
f 13/28/13 14/26/14 28/20/28 29/19/29
f 37/1/37 45/4/45 38/3/38 11/2/11
f 2/5/2 32/8/32 33/7/33 3/6/3
f 46/9/46 34/11/34 43/10/43 38/3/38
f 32/8/32 31/13/31 36/12/36 33/7/33
f 45/4/45 49/14/49 38/3/38
f 33/15/33 35/18/35 7/17/7 3/16/3
f 29/19/29 11/2/11 38/3/38 51/20/51
f 40/21/40 35/18/35 33/15/33 36/22/36
f 33/23/33 39/26/39 42/25/42 36/24/36
f 3/27/3 13/28/13 39/26/39 33/23/33
f 7/17/7 35/18/35 40/21/40 21/29/21
f 51/20/51 38/3/38 43/10/43 52/30/52
f 11/2/11 50/31/50 37/1/37
f 38/3/38 48/32/48 46/9/46
f 34/11/34 47/33/47 43/10/43
f 47/33/47 41/10/41 43/10/43
f 48/32/48 38/3/38 44/3/44
f 49/14/49 44/3/44 38/3/38
f 50/31/50 11/2/11 19/2/19
f 39/26/39 51/20/51 52/30/52 42/25/42
f 13/28/13 29/19/29 51/20/51 39/26/39
f 60/1/60 67/4/67 62/3/62 61/2/61
f 53/5/53 55/8/55 56/7/56 54/6/54
f 68/9/68 57/11/57 18/10/18 62/3/62
f 55/8/55 1/13/1 9/12/9 56/7/56
f 67/4/67 71/14/71 62/3/62
f 56/15/56 59/18/59 58/17/58 54/16/54
f 74/19/74 61/2/61 62/3/62 73/20/73
f 15/21/15 59/18/59 56/15/56 9/22/9
f 56/23/56 64/26/64 17/25/17 9/24/9
f 54/27/54 63/28/63 64/26/64 56/23/56
f 58/17/58 59/18/59 15/21/15 21/29/21
f 73/20/73 62/3/62 18/10/18 30/30/30
f 61/2/61 72/31/72 60/1/60
f 62/3/62 70/32/70 68/9/68
f 57/11/57 69/33/69 18/10/18
f 69/33/69 16/10/16 18/10/18
f 70/32/70 62/3/62 66/3/66
f 71/14/71 66/3/66 62/3/62
f 72/31/72 61/2/61 65/2/65
f 64/26/64 73/20/73 30/30/30 17/25/17
f 63/28/63 74/19/74 73/20/73 64/26/64
f 79/1/79 61/2/61 80/3/80 83/4/83
f 53/5/53 54/6/54 76/7/76 75/8/75
f 84/9/84 80/3/80 43/10/43 77/11/77
f 75/8/75 76/7/76 36/12/36 31/13/31
f 83/4/83 80/3/80 87/14/87
f 76/15/76 54/16/54 58/17/58 78/18/78
f 74/19/74 89/20/89 80/3/80 61/2/61
f 40/21/40 36/22/36 76/15/76 78/18/78
f 76/23/76 36/24/36 42/25/42 81/26/81
f 54/27/54 76/23/76 81/26/81 63/28/63
f 58/17/58 21/29/21 40/21/40 78/18/78
f 89/20/89 52/30/52 43/10/43 80/3/80
f 61/2/61 79/1/79 88/31/88
f 80/3/80 84/9/84 86/32/86
f 77/11/77 43/10/43 85/33/85
f 85/33/85 43/10/43 41/10/41
f 86/32/86 82/3/82 80/3/80
f 87/14/87 80/3/80 82/3/82
f 88/31/88 65/2/65 61/2/61
f 81/26/81 42/25/42 52/30/52 89/20/89
f 63/28/63 81/26/81 89/20/89 74/19/74
